# xmcd
#
# Track frame offsets:
#	150
#	14880
#	28780
#	58047
#	81072
#	97550
#	124112
#	141327
#	164612
#	190375
#	204112
#	232272
#	254087
#	281350
#	300867
#	315105
#
# Disc length: 4596 seconds
#
# Revision: 7
# Processed by: cddbd v1.5.2PL0 Copyright (c) Steve Scherf et al.
# Submitted via: audiograbber 1.83.01
#
DISCID=d711f210
DTITLE=Cactus - Cactology - The Cactus Collection
DYEAR=1996
DGENRE=Oldies
TTITLE0=Evil
TTITLE1=Parchman Farm
TTITLE2=You Can't Judge A Book By The Cover
TTITLE3=One Way... .Or Another
TTITLE4=Alaska
TTITLE5=Long Tall Sally
TTITLE6=Let Me Swim
TTITLE7=Bro. Bill
TTITLE8=Rock N' Roll Children
TTITLE9=Song For Aries
TTITLE10=Restrictions
TTITLE11=Oleo
TTITLE12=Feel So Good
TTITLE13=Rumblin' Man (Previously Unreleased)
TTITLE14=Bad Stuff
TTITLE15=Parchman Farm  (Live)
EXTD=
EXTT0=
EXTT1=
EXTT2=
EXTT3=
EXTT4=
EXTT5=
EXTT6=
EXTT7=
EXTT8=
EXTT9=
EXTT10=
EXTT11=
EXTT12=
EXTT13=
EXTT14=
EXTT15=
PLAYORDER=
